<?xml version="1.0" standalone="no"?>
<!DOCTYPE svg PUBLIC "-//W3C//DTD SVG 20010904//EN"
 "http://www.w3.org/TR/2001/REC-SVG-20010904/DTD/svg10.dtd">
<svg version="1.0" xmlns="http://www.w3.org/2000/svg"
 width="512.000000pt" height="512.000000pt" viewBox="0 0 512.000000 512.000000"
 preserveAspectRatio="xMidYMid meet">

<g transform="translate(0.000000,512.000000) scale(0.100000,-0.100000)"
fill="#000000" stroke="none">
<path d="M740 4464 c-116 -31 -214 -115 -271 -229 l-34 -70 0 -1605 0 -1605
34 -70 c38 -76 103 -148 171 -188 101 -59 52 -57 1385 -57 1333 0 1278 -2
1388 57 61 34 138 117 170 186 38 80 47 152 47 389 l0 218 -215 0 -215 0 0
-210 0 -210 -1175 0 -1175 0 0 1490 0 1490 1175 0 1175 0 0 -210 0 -210 215 0
215 0 0 218 c0 120 -5 245 -11 278 -31 167 -150 296 -314 339 -87 22 -2481 22
-2565 -1z"/>
<path d="M3687 3262 l-147 -147 165 -165 c91 -91 165 -168 165 -172 0 -5 -439
-8 -975 -8 l-975 0 0 -210 0 -210 975 0 c536 0 975 -3 975 -7 0 -4 -74 -82
-165 -173 l-165 -165 150 -150 150 -150 428 428 427 427 -425 425 c-234 234
-427 425 -430 425 -3 0 -72 -66 -153 -148z"/>
</g>
</svg>
